<svg xmlns="http://www.w3.org/2000/svg" xmlns:xlink="http://www.w3.org/1999/xlink" width="500" zoomAndPan="magnify" viewBox="0 0 375 374.999991" height="500" preserveAspectRatio="xMidYMid meet" version="1.0"><defs><clipPath id="d4d2abdf96"><path d="M 6.65625 3.925781 L 371.074219 3.925781 L 371.074219 368.34375 L 6.65625 368.34375 Z M 6.65625 3.925781 " clip-rule="nonzero"/></clipPath><clipPath id="e3277532d8"><path d="M 188.863281 3.925781 C 88.234375 3.925781 6.65625 85.503906 6.65625 186.136719 C 6.65625 286.765625 88.234375 368.34375 188.863281 368.34375 C 289.496094 368.34375 371.074219 286.765625 371.074219 186.136719 C 371.074219 85.503906 289.496094 3.925781 188.863281 3.925781 Z M 188.863281 3.925781 " clip-rule="nonzero"/></clipPath><clipPath id="743a9427b6"><path d="M 89 139 L 231 139 L 231 332.394531 L 89 332.394531 Z M 89 139 " clip-rule="nonzero"/></clipPath><clipPath id="a81228da76"><path d="M 80 100 L 312.703125 100 L 312.703125 331 L 80 331 Z M 80 100 " clip-rule="nonzero"/></clipPath><clipPath id="a7b0dabb5f"><path d="M 159 235 L 230 235 L 230 332.394531 L 159 332.394531 Z M 159 235 " clip-rule="nonzero"/></clipPath></defs><g clip-path="url(#d4d2abdf96)"><g clip-path="url(#e3277532d8)"><path fill="#a0bab3" d="M 6.65625 3.925781 L 371.074219 3.925781 L 371.074219 368.34375 L 6.65625 368.34375 Z M 6.65625 3.925781 " fill-opacity="1" fill-rule="nonzero"/></g></g><path fill="#f3eac6" d="M 187.078125 160.289062 C 187.078125 160.671875 187.039062 161.046875 186.964844 161.421875 C 186.890625 161.792969 186.78125 162.15625 186.636719 162.507812 C 186.492188 162.859375 186.3125 163.195312 186.101562 163.511719 C 185.886719 163.828125 185.648438 164.121094 185.378906 164.390625 C 185.109375 164.660156 184.816406 164.898438 184.5 165.109375 C 184.183594 165.320312 183.851562 165.5 183.5 165.644531 C 183.148438 165.792969 182.785156 165.902344 182.410156 165.976562 C 182.039062 166.050781 181.660156 166.085938 181.28125 166.085938 C 180.898438 166.085938 180.523438 166.050781 180.148438 165.976562 C 179.773438 165.902344 179.414062 165.792969 179.0625 165.644531 C 178.710938 165.5 178.375 165.320312 178.058594 165.109375 C 177.742188 164.898438 177.449219 164.660156 177.179688 164.390625 C 176.910156 164.121094 176.671875 163.828125 176.460938 163.511719 C 176.246094 163.195312 176.070312 162.859375 175.921875 162.507812 C 175.777344 162.15625 175.667969 161.792969 175.59375 161.421875 C 175.519531 161.046875 175.480469 160.671875 175.480469 160.289062 C 175.480469 159.910156 175.519531 159.53125 175.59375 159.160156 C 175.667969 158.785156 175.777344 158.421875 175.921875 158.070312 C 176.070312 157.71875 176.246094 157.386719 176.460938 157.070312 C 176.671875 156.753906 176.910156 156.460938 177.179688 156.191406 C 177.449219 155.921875 177.742188 155.679688 178.058594 155.46875 C 178.375 155.257812 178.710938 155.078125 179.0625 154.933594 C 179.414062 154.789062 179.773438 154.679688 180.148438 154.605469 C 180.523438 154.53125 180.898438 154.492188 181.28125 154.492188 C 181.660156 154.492188 182.039062 154.53125 182.410156 154.605469 C 182.785156 154.679688 183.148438 154.789062 183.5 154.933594 C 183.851562 155.078125 184.183594 155.257812 184.5 155.46875 C 184.816406 155.679688 185.109375 155.921875 185.378906 156.191406 C 185.648438 156.460938 185.886719 156.753906 186.101562 157.070312 C 186.3125 157.386719 186.492188 157.71875 186.636719 158.070312 C 186.78125 158.421875 186.890625 158.785156 186.964844 159.160156 C 187.039062 159.53125 187.078125 159.910156 187.078125 160.289062 Z M 187.078125 160.289062 " fill-opacity="1" fill-rule="nonzero"/><path fill="#f3eac6" d="M 233.398438 161.160156 C 233.441406 160.921875 233.460938 160.683594 233.453125 160.441406 C 233.449219 160.203125 233.414062 159.964844 233.355469 159.730469 C 233.292969 159.496094 233.210938 159.273438 233.101562 159.058594 C 232.992188 158.84375 232.859375 158.644531 232.707031 158.457031 C 232.550781 158.269531 232.378906 158.105469 232.191406 157.957031 C 232 157.808594 231.796875 157.683594 231.578125 157.578125 C 231.359375 157.476562 231.132812 157.398438 230.898438 157.347656 C 230.660156 157.292969 230.421875 157.265625 230.183594 157.265625 L 224.738281 157.265625 C 225.257812 161.199219 226.925781 169.332031 231.8125 169.394531 Z M 233.398438 161.160156 " fill-opacity="1" fill-rule="nonzero"/><path fill="#f3eac6" d="M 214.3125 244.078125 L 212.230469 234.105469 L 205.6875 237.417969 L 208.710938 244.078125 Z M 214.3125 244.078125 " fill-opacity="1" fill-rule="nonzero"/><g clip-path="url(#743a9427b6)"><path fill="#f3eac6" d="M 111.734375 324.554688 C 109.84375 324.453125 108.035156 324.015625 106.308594 323.246094 C 104.582031 322.472656 103.050781 321.417969 101.714844 320.078125 C 98.679688 316.789062 97.359375 311.800781 97.792969 305.25 C 98.375 297.824219 99.890625 290.589844 102.335938 283.550781 C 105.464844 287.9375 108.878906 292.085938 112.582031 295.996094 C 116.285156 299.90625 120.242188 303.546875 124.449219 306.910156 C 128.65625 310.273438 133.074219 313.332031 137.703125 316.082031 C 142.335938 318.832031 147.132812 321.253906 152.097656 323.339844 C 152.042969 320.546875 152.066406 317.765625 152.179688 315.011719 C 151.136719 260.675781 185.652344 233.742188 194.230469 227.902344 C 194.160156 223.4375 193.667969 219.023438 192.757812 214.652344 C 191.496094 210.425781 189.8125 206.371094 187.707031 202.496094 L 182.050781 202.898438 C 181.539062 202.933594 181.042969 202.871094 180.554688 202.707031 C 180.070312 202.542969 179.636719 202.296875 179.25 201.960938 C 178.863281 201.625 178.554688 201.226562 178.328125 200.769531 C 178.097656 200.3125 177.964844 199.828125 177.929688 199.316406 C 177.890625 198.808594 177.953125 198.308594 178.117188 197.824219 C 178.277344 197.335938 178.523438 196.902344 178.859375 196.515625 C 179.195312 196.128906 179.589844 195.820312 180.046875 195.589844 C 180.503906 195.359375 180.988281 195.226562 181.5 195.1875 L 214.558594 192.832031 C 215.472656 192.78125 216.375 192.660156 217.265625 192.460938 C 218.160156 192.261719 219.03125 191.988281 219.878906 191.644531 C 220.722656 191.300781 221.539062 190.890625 222.316406 190.410156 C 223.09375 189.933594 223.828125 189.394531 224.519531 188.792969 C 225.207031 188.191406 225.84375 187.535156 226.421875 186.832031 C 227.003906 186.125 227.523438 185.375 227.976562 184.582031 C 228.433594 183.789062 228.820312 182.964844 229.140625 182.105469 C 229.457031 181.25 229.703125 180.371094 229.875 179.472656 L 230.347656 177.019531 C 221.070312 175.953125 217.609375 165.011719 216.914062 157.265625 L 206.222656 157.265625 C 205.515625 157.265625 204.859375 157.085938 204.25 156.726562 C 203.640625 156.363281 203.167969 155.875 202.828125 155.253906 L 194.292969 139.597656 L 140.507812 145.574219 C 135.75 146.105469 124.589844 148.347656 123.707031 157.742188 C 123.699219 157.828125 123.6875 157.914062 123.671875 158 L 117.242188 197.558594 C 117.203125 198 117.191406 198.441406 117.199219 198.886719 C 117.207031 199.328125 117.238281 199.769531 117.292969 200.210938 C 117.347656 200.648438 117.421875 201.085938 117.523438 201.515625 C 117.621094 201.949219 117.742188 202.375 117.886719 202.792969 C 118.027344 203.210938 118.191406 203.625 118.378906 204.027344 C 118.566406 204.425781 118.769531 204.820312 118.996094 205.199219 C 119.222656 205.582031 119.46875 205.949219 119.734375 206.304688 C 119.996094 206.660156 120.28125 207 120.578125 207.328125 C 120.878906 207.652344 121.195312 207.960938 121.527344 208.257812 C 121.859375 208.550781 122.203125 208.824219 122.566406 209.082031 C 122.925781 209.339844 123.296875 209.578125 123.683594 209.796875 C 124.066406 210.015625 124.464844 210.214844 124.867188 210.394531 C 125.273438 210.574219 125.6875 210.730469 126.109375 210.863281 C 126.53125 211 126.960938 211.113281 127.394531 211.203125 C 127.828125 211.292969 128.265625 211.363281 128.703125 211.410156 C 129.144531 211.453125 129.585938 211.476562 130.03125 211.476562 L 134.5 211.476562 C 135.378906 211.476562 136.253906 211.386719 137.113281 211.210938 C 137.976562 211.03125 138.8125 210.765625 139.621094 210.414062 C 140.429688 210.0625 141.191406 209.632812 141.914062 209.121094 C 142.632812 208.613281 143.292969 208.035156 143.890625 207.390625 C 144.492188 206.746094 145.019531 206.046875 145.476562 205.292969 C 145.933594 204.539062 146.308594 203.746094 146.601562 202.917969 C 146.894531 202.085938 147.101562 201.234375 147.21875 200.359375 C 147.335938 199.484375 147.363281 198.609375 147.300781 197.730469 L 145.335938 181.578125 C 145.28125 181.070312 145.320312 180.574219 145.460938 180.082031 C 145.597656 179.589844 145.828125 179.144531 146.144531 178.746094 C 146.460938 178.34375 146.839844 178.019531 147.285156 177.769531 C 147.730469 177.519531 148.203125 177.363281 148.710938 177.300781 C 149.21875 177.242188 149.714844 177.277344 150.207031 177.414062 C 150.699219 177.550781 151.148438 177.773438 151.550781 178.089844 C 151.953125 178.402344 152.28125 178.78125 152.535156 179.222656 C 152.785156 179.664062 152.945312 180.140625 153.011719 180.644531 L 154.992188 196.988281 C 155.050781 197.695312 155.070312 198.402344 155.054688 199.109375 C 155.039062 199.816406 154.988281 200.523438 154.898438 201.226562 C 154.808594 201.929688 154.683594 202.625 154.523438 203.3125 C 154.363281 204.003906 154.167969 204.683594 153.9375 205.351562 C 153.707031 206.023438 153.441406 206.675781 153.140625 207.320312 C 152.84375 207.960938 152.511719 208.585938 152.148438 209.195312 C 151.785156 209.800781 151.394531 210.390625 150.96875 210.957031 C 150.546875 211.523438 150.09375 212.066406 149.613281 212.589844 C 149.132812 213.109375 148.628906 213.601562 148.097656 214.070312 C 147.566406 214.539062 147.011719 214.980469 146.433594 215.390625 C 145.859375 215.800781 145.261719 216.179688 144.644531 216.53125 C 144.03125 216.878906 143.398438 217.195312 142.75 217.480469 C 142.101562 217.765625 141.4375 218.015625 140.765625 218.230469 C 140.089844 218.445312 139.40625 218.625 138.714844 218.773438 C 138.019531 218.917969 137.320312 219.027344 136.617188 219.097656 C 135.914062 219.171875 135.207031 219.207031 134.5 219.207031 L 130.03125 219.207031 C 129.386719 219.207031 128.75 219.167969 128.113281 219.105469 C 127.933594 219.667969 119.414062 239.085938 113.101562 247.203125 C 100.152344 263.851562 91.332031 285.898438 90.078125 304.738281 C 89.496094 313.550781 91.53125 320.507812 96.128906 325.421875 C 97.152344 326.460938 98.261719 327.394531 99.460938 328.222656 C 100.660156 329.050781 101.925781 329.757812 103.261719 330.347656 C 104.59375 330.933594 105.972656 331.390625 107.394531 331.71875 C 108.8125 332.042969 110.25 332.234375 111.707031 332.285156 C 112.21875 332.285156 112.710938 332.183594 113.179688 331.988281 C 113.652344 331.792969 114.070312 331.515625 114.429688 331.152344 C 114.789062 330.792969 115.070312 330.375 115.265625 329.90625 C 115.460938 329.433594 115.558594 328.941406 115.5625 328.433594 C 115.5625 327.921875 115.46875 327.429688 115.273438 326.957031 C 115.082031 326.484375 114.804688 326.066406 114.445312 325.703125 C 114.089844 325.339844 113.671875 325.058594 113.203125 324.859375 C 112.734375 324.664062 112.242188 324.558594 111.734375 324.554688 Z M 181.28125 148.695312 C 182.039062 148.695312 182.796875 148.769531 183.542969 148.917969 C 184.289062 149.066406 185.011719 149.285156 185.71875 149.578125 C 186.421875 149.867188 187.089844 150.226562 187.722656 150.648438 C 188.355469 151.070312 188.941406 151.554688 189.480469 152.089844 C 190.015625 152.628906 190.496094 153.214844 190.921875 153.847656 C 191.34375 154.480469 191.699219 155.148438 191.992188 155.851562 C 192.285156 156.554688 192.503906 157.28125 192.652344 158.027344 C 192.800781 158.773438 192.875 159.527344 192.875 160.289062 C 192.875 161.050781 192.800781 161.804688 192.652344 162.550781 C 192.503906 163.300781 192.285156 164.023438 191.992188 164.726562 C 191.699219 165.429688 191.34375 166.097656 190.921875 166.730469 C 190.496094 167.363281 190.015625 167.949219 189.480469 168.488281 C 188.941406 169.027344 188.355469 169.507812 187.722656 169.929688 C 187.089844 170.355469 186.421875 170.710938 185.71875 171.003906 C 185.011719 171.292969 184.289062 171.515625 183.542969 171.664062 C 182.796875 171.8125 182.039062 171.886719 181.28125 171.886719 C 180.519531 171.886719 179.765625 171.8125 179.015625 171.664062 C 178.269531 171.515625 177.546875 171.292969 176.84375 171.003906 C 176.140625 170.710938 175.472656 170.355469 174.835938 169.929688 C 174.203125 169.507812 173.617188 169.027344 173.082031 168.488281 C 172.542969 167.949219 172.0625 167.363281 171.636719 166.730469 C 171.214844 166.097656 170.859375 165.429688 170.566406 164.726562 C 170.277344 164.023438 170.054688 163.300781 169.90625 162.550781 C 169.757812 161.804688 169.683594 161.050781 169.683594 160.289062 C 169.683594 159.527344 169.761719 158.773438 169.910156 158.027344 C 170.058594 157.28125 170.277344 156.558594 170.570312 155.855469 C 170.863281 155.152344 171.21875 154.484375 171.640625 153.851562 C 172.066406 153.21875 172.546875 152.632812 173.085938 152.09375 C 173.621094 151.558594 174.207031 151.074219 174.839844 150.652344 C 175.472656 150.230469 176.140625 149.871094 176.84375 149.582031 C 177.546875 149.289062 178.273438 149.070312 179.019531 148.917969 C 179.765625 148.769531 180.519531 148.695312 181.28125 148.695312 Z M 181.28125 148.695312 " fill-opacity="1" fill-rule="nonzero"/></g><g clip-path="url(#a81228da76)"><path fill="#f3eac6" d="M 274.042969 266.578125 L 274.042969 229.859375 C 274.042969 229.347656 274.140625 228.855469 274.335938 228.382812 C 274.53125 227.910156 274.8125 227.492188 275.171875 227.128906 C 275.535156 226.765625 275.953125 226.488281 276.425781 226.289062 C 276.902344 226.09375 277.394531 225.996094 277.90625 225.996094 L 312.257812 225.996094 C 312.523438 222.808594 312.691406 219.589844 312.691406 216.332031 C 312.691406 213.078125 312.523438 209.859375 312.257812 206.671875 L 277.90625 206.671875 C 277.394531 206.671875 276.902344 206.574219 276.425781 206.375 C 275.953125 206.179688 275.535156 205.902344 275.171875 205.539062 C 274.8125 205.175781 274.53125 204.757812 274.335938 204.285156 C 274.140625 203.8125 274.042969 203.320312 274.042969 202.804688 L 274.042969 166.085938 L 254.714844 166.085938 L 254.714844 202.804688 C 254.714844 203.320312 254.617188 203.8125 254.421875 204.285156 C 254.226562 204.757812 253.945312 205.175781 253.582031 205.539062 C 253.222656 205.902344 252.804688 206.179688 252.328125 206.375 C 251.855469 206.574219 251.363281 206.671875 250.851562 206.671875 L 237.324219 206.671875 C 236.808594 206.671875 236.316406 206.574219 235.84375 206.375 C 235.371094 206.179688 234.953125 205.902344 234.589844 205.539062 C 234.226562 205.175781 233.949219 204.757812 233.753906 204.285156 C 233.554688 203.8125 233.457031 203.320312 233.457031 202.804688 C 233.457031 202.292969 233.554688 201.800781 233.753906 201.328125 C 233.949219 200.851562 234.226562 200.433594 234.589844 200.074219 C 234.953125 199.710938 235.371094 199.429688 235.84375 199.234375 C 236.316406 199.039062 236.808594 198.941406 237.324219 198.941406 L 246.984375 198.941406 L 246.984375 162.222656 C 246.984375 161.710938 247.082031 161.21875 247.28125 160.742188 C 247.476562 160.269531 247.753906 159.851562 248.117188 159.488281 C 248.480469 159.128906 248.898438 158.847656 249.371094 158.652344 C 249.84375 158.457031 250.339844 158.359375 250.851562 158.359375 L 277.90625 158.359375 C 278.417969 158.359375 278.910156 158.457031 279.386719 158.652344 C 279.859375 158.847656 280.277344 159.128906 280.640625 159.488281 C 281 159.851562 281.28125 160.269531 281.476562 160.742188 C 281.671875 161.21875 281.769531 161.710938 281.769531 162.222656 L 281.769531 198.941406 L 311.382812 198.941406 C 311.074219 196.878906 310.707031 194.828125 310.285156 192.789062 C 309.863281 190.746094 309.386719 188.71875 308.855469 186.703125 C 308.324219 184.6875 307.738281 182.6875 307.097656 180.703125 C 306.460938 178.71875 305.765625 176.753906 305.023438 174.808594 C 304.277344 172.859375 303.480469 170.9375 302.628906 169.03125 C 301.78125 167.128906 300.882812 165.25 299.933594 163.394531 C 298.980469 161.539062 297.980469 159.710938 296.933594 157.910156 C 295.882812 156.109375 294.789062 154.335938 293.644531 152.59375 C 292.5 150.851562 291.308594 149.144531 290.070312 147.464844 C 288.835938 145.785156 287.554688 144.144531 286.226562 142.535156 C 284.902344 140.925781 283.535156 139.355469 282.125 137.820312 C 280.714844 136.285156 279.265625 134.789062 277.773438 133.332031 C 276.28125 131.875 274.753906 130.460938 273.1875 129.085938 C 271.621094 127.710938 270.015625 126.378906 268.378906 125.089844 C 266.738281 123.804688 265.066406 122.5625 263.359375 121.363281 C 261.65625 120.164062 259.917969 119.015625 258.148438 117.910156 C 256.382812 116.808594 254.585938 115.75 252.761719 114.742188 C 250.9375 113.738281 249.085938 112.78125 247.207031 111.871094 C 245.332031 110.964844 243.433594 110.109375 241.511719 109.304688 C 239.585938 108.5 237.644531 107.746094 235.679688 107.046875 C 233.71875 106.347656 231.738281 105.699219 229.738281 105.105469 C 227.742188 104.511719 225.726562 103.972656 223.699219 103.488281 C 221.671875 103.003906 219.632812 102.574219 217.585938 102.199219 C 215.535156 101.824219 213.476562 101.507812 211.40625 101.242188 C 209.339844 100.980469 207.265625 100.769531 205.1875 100.617188 C 203.109375 100.46875 201.027344 100.371094 198.945312 100.332031 C 196.859375 100.292969 194.777344 100.308594 192.691406 100.382812 C 190.609375 100.453125 188.53125 100.582031 186.453125 100.765625 C 184.378906 100.953125 182.308594 101.191406 180.246094 101.488281 C 178.183594 101.785156 176.128906 102.136719 174.085938 102.542969 C 172.039062 102.953125 170.007812 103.414062 167.988281 103.929688 C 165.96875 104.449219 163.964844 105.019531 161.976562 105.644531 C 159.988281 106.269531 158.019531 106.945312 156.066406 107.675781 C 154.113281 108.410156 152.183594 109.191406 150.273438 110.027344 C 148.363281 110.863281 146.476562 111.75 144.617188 112.683594 C 142.753906 113.621094 140.917969 114.609375 139.109375 115.644531 C 137.300781 116.679688 135.523438 117.765625 133.773438 118.894531 C 132.023438 120.027344 130.304688 121.207031 128.617188 122.429688 C 126.929688 123.65625 125.277344 124.925781 123.660156 126.238281 C 122.039062 127.550781 120.460938 128.90625 118.914062 130.308594 C 117.367188 131.707031 115.863281 133.144531 114.394531 134.625 C 112.929688 136.105469 111.5 137.625 110.117188 139.183594 C 108.730469 140.738281 107.386719 142.332031 106.085938 143.960938 C 104.789062 145.589844 103.535156 147.253906 102.324219 148.953125 C 101.113281 150.648438 99.949219 152.378906 98.832031 154.136719 C 97.714844 155.898438 96.648438 157.6875 95.628906 159.503906 C 94.609375 161.320312 93.636719 163.164062 92.714844 165.035156 C 91.796875 166.90625 90.925781 168.796875 90.105469 170.714844 C 89.289062 172.632812 88.523438 174.570312 87.808594 176.527344 C 87.09375 178.484375 86.433594 180.460938 85.824219 182.457031 C 85.21875 184.449219 84.664062 186.457031 84.164062 188.480469 C 83.664062 190.507812 83.21875 192.542969 82.832031 194.589844 C 82.441406 196.636719 82.105469 198.695312 81.828125 200.757812 C 81.550781 202.824219 81.328125 204.898438 81.160156 206.972656 C 80.992188 209.050781 80.882812 211.132812 80.828125 213.214844 C 80.773438 215.300781 80.773438 217.382812 80.832031 219.46875 C 80.890625 221.550781 81.003906 223.632812 81.171875 225.707031 C 81.34375 227.785156 81.570312 229.855469 81.851562 231.921875 C 82.132812 233.988281 82.46875 236.042969 82.863281 238.089844 C 83.253906 240.136719 83.703125 242.171875 84.203125 244.195312 C 84.707031 246.21875 85.261719 248.226562 85.871094 250.21875 C 86.484375 252.210938 87.148438 254.1875 87.863281 256.144531 C 88.582031 258.101562 89.351562 260.039062 90.171875 261.953125 C 90.992188 263.871094 91.867188 265.761719 92.789062 267.628906 C 96.265625 260.378906 100.460938 253.570312 105.371094 247.203125 C 113.734375 236.449219 118.804688 222.664062 120.6875 216.929688 C 119.773438 216.46875 118.898438 215.941406 118.0625 215.347656 C 117.226562 214.753906 116.441406 214.105469 115.707031 213.394531 C 114.96875 212.683594 114.289062 211.921875 113.667969 211.109375 C 113.042969 210.296875 112.484375 209.441406 111.992188 208.542969 C 111.5 207.648438 111.074219 206.71875 110.722656 205.757812 C 110.367188 204.796875 110.085938 203.816406 109.878906 202.8125 C 109.671875 201.808594 109.542969 200.796875 109.488281 199.777344 C 109.433594 198.753906 109.457031 197.734375 109.558594 196.714844 C 109.566406 196.628906 109.574219 196.542969 109.589844 196.457031 L 116.023438 156.882812 C 117.070312 146.515625 125.894531 139.421875 139.65625 137.894531 L 196.015625 131.628906 C 196.398438 131.589844 196.777344 131.601562 197.152344 131.671875 C 197.53125 131.742188 197.890625 131.867188 198.230469 132.042969 C 198.570312 132.21875 198.878906 132.441406 199.152344 132.710938 C 199.425781 132.980469 199.652344 133.28125 199.835938 133.621094 L 208.519531 149.535156 L 230.183594 149.535156 C 230.585938 149.535156 230.988281 149.558594 231.390625 149.601562 C 231.792969 149.648438 232.191406 149.714844 232.585938 149.800781 C 232.980469 149.890625 233.367188 150 233.75 150.132812 C 234.132812 150.261719 234.503906 150.414062 234.871094 150.585938 C 235.238281 150.757812 235.589844 150.949219 235.9375 151.160156 C 236.28125 151.371094 236.613281 151.601562 236.929688 151.851562 C 237.25 152.097656 237.554688 152.363281 237.84375 152.644531 C 238.136719 152.925781 238.410156 153.222656 238.664062 153.53125 C 238.921875 153.84375 239.164062 154.167969 239.382812 154.507812 C 239.605469 154.84375 239.808594 155.195312 239.992188 155.554688 C 240.175781 155.914062 240.335938 156.285156 240.480469 156.660156 C 240.621094 157.039062 240.742188 157.425781 240.84375 157.816406 C 240.941406 158.207031 241.023438 158.605469 241.078125 159.003906 C 241.132812 159.402344 241.167969 159.804688 241.179688 160.210938 C 241.191406 160.613281 241.183594 161.015625 241.152344 161.417969 C 241.117188 161.824219 241.0625 162.222656 240.988281 162.617188 L 237.464844 180.933594 C 237.214844 182.25 236.855469 183.535156 236.390625 184.792969 C 235.925781 186.046875 235.359375 187.257812 234.691406 188.417969 C 234.027344 189.582031 233.269531 190.679688 232.417969 191.71875 C 231.570312 192.753906 230.640625 193.710938 229.632812 194.59375 C 228.625 195.476562 227.550781 196.269531 226.414062 196.972656 C 225.273438 197.679688 224.082031 198.28125 222.84375 198.789062 C 221.601562 199.296875 220.328125 199.695312 219.023438 199.992188 C 217.714844 200.285156 216.394531 200.472656 215.054688 200.546875 L 196.054688 201.902344 C 197.800781 205.390625 199.203125 209.015625 200.257812 212.777344 C 201.390625 218.226562 201.96875 223.738281 201.996094 229.308594 L 202.484375 230.375 L 213.234375 224.9375 C 213.5 224.800781 213.773438 224.699219 214.0625 224.628906 C 214.351562 224.558594 214.644531 224.523438 214.941406 224.519531 C 215.238281 224.515625 215.53125 224.546875 215.820312 224.609375 C 216.109375 224.675781 216.386719 224.773438 216.65625 224.898438 C 216.921875 225.027344 217.171875 225.1875 217.402344 225.371094 C 217.632812 225.558594 217.839844 225.765625 218.023438 226 C 218.207031 226.234375 218.359375 226.484375 218.484375 226.753906 C 218.609375 227.023438 218.703125 227.300781 218.765625 227.59375 L 222.527344 245.582031 C 225.453125 246.863281 227.835938 248.808594 229.675781 251.421875 L 237.101562 262.027344 C 237.4375 262.503906 237.652344 263.03125 237.746094 263.605469 C 237.84375 264.179688 237.8125 264.746094 237.652344 265.308594 L 236.015625 271.03125 C 235.378906 273.269531 234.417969 275.355469 233.128906 277.289062 C 231.839844 279.226562 230.289062 280.917969 228.46875 282.367188 L 224.941406 285.191406 C 224.457031 285.578125 223.914062 285.835938 223.308594 285.960938 C 222.703125 286.085938 222.105469 286.066406 221.507812 285.90625 C 220.058594 285.523438 215.738281 284.984375 213.421875 287.074219 C 210.945312 289.308594 211.105469 294.1875 211.671875 297.890625 C 212.214844 302.101562 212.371094 306.332031 212.144531 310.574219 C 212.535156 317.414062 213.617188 324.140625 215.386719 330.757812 C 218.386719 330.261719 221.363281 329.652344 224.316406 328.925781 C 227.269531 328.199219 230.191406 327.355469 233.074219 326.398438 C 235.960938 325.441406 238.808594 324.375 241.609375 323.195312 C 244.410156 322.015625 247.164062 320.726562 249.867188 319.332031 C 252.566406 317.933594 255.210938 316.433594 257.792969 314.832031 C 260.378906 313.226562 262.894531 311.527344 265.34375 309.726562 C 267.792969 307.925781 270.171875 306.03125 272.472656 304.042969 C 274.773438 302.054688 276.992188 299.980469 279.132812 297.820312 C 281.269531 295.65625 283.320312 293.414062 285.285156 291.09375 C 287.246094 288.769531 289.113281 286.375 290.890625 283.90625 C 292.664062 281.4375 294.339844 278.902344 295.914062 276.300781 C 297.488281 273.699219 298.960938 271.039062 300.328125 268.324219 C 301.695312 265.609375 302.953125 262.84375 304.101562 260.027344 C 305.253906 257.210938 306.289062 254.355469 307.214844 251.460938 C 308.140625 248.5625 308.953125 245.636719 309.648438 242.675781 C 310.34375 239.714844 310.921875 236.730469 311.382812 233.726562 L 281.769531 233.726562 L 281.769531 270.445312 C 281.769531 270.957031 281.671875 271.449219 281.476562 271.921875 C 281.28125 272.398438 281 272.816406 280.640625 273.175781 C 280.277344 273.539062 279.859375 273.820312 279.386719 274.015625 C 278.910156 274.210938 278.417969 274.308594 277.90625 274.308594 L 250.851562 274.308594 C 250.339844 274.308594 249.84375 274.210938 249.371094 274.015625 C 248.898438 273.820312 248.480469 273.539062 248.117188 273.175781 C 247.753906 272.816406 247.476562 272.398438 247.28125 271.921875 C 247.082031 271.449219 246.984375 270.957031 246.984375 270.445312 L 246.984375 233.726562 L 229.59375 233.726562 C 229.082031 233.726562 228.585938 233.628906 228.113281 233.433594 C 227.640625 233.234375 227.222656 232.957031 226.859375 232.59375 C 226.496094 232.230469 226.21875 231.8125 226.023438 231.339844 C 225.824219 230.867188 225.726562 230.375 225.726562 229.859375 C 225.726562 229.347656 225.824219 228.855469 226.023438 228.382812 C 226.21875 227.910156 226.496094 227.492188 226.859375 227.128906 C 227.222656 226.765625 227.640625 226.488281 228.113281 226.289062 C 228.585938 226.09375 229.082031 225.996094 229.59375 225.996094 L 250.851562 225.996094 C 251.363281 225.996094 251.855469 226.09375 252.328125 226.289062 C 252.804688 226.488281 253.222656 226.765625 253.582031 227.128906 C 253.945312 227.492188 254.226562 227.910156 254.421875 228.382812 C 254.617188 228.855469 254.714844 229.347656 254.714844 229.859375 L 254.714844 266.578125 Z M 274.042969 266.578125 " fill-opacity="1" fill-rule="nonzero"/></g><g clip-path="url(#a7b0dabb5f)"><path fill="#f3eac6" d="M 204.417969 310.371094 C 204.628906 306.589844 204.5 302.820312 204.035156 299.0625 C 202.78125 290.910156 204.214844 284.933594 208.296875 281.289062 C 209.214844 280.5625 210.203125 279.9375 211.257812 279.421875 C 212.308594 278.902344 213.40625 278.503906 214.546875 278.222656 C 215.6875 277.945312 216.84375 277.789062 218.019531 277.757812 C 219.191406 277.726562 220.355469 277.820312 221.507812 278.039062 L 223.640625 276.332031 C 224.832031 275.382812 225.847656 274.273438 226.691406 273.003906 C 227.539062 271.738281 228.167969 270.371094 228.582031 268.90625 L 229.714844 264.953125 L 223.34375 255.855469 C 222.90625 255.230469 222.398438 254.667969 221.828125 254.164062 C 221.253906 253.660156 220.628906 253.234375 219.953125 252.882812 C 219.277344 252.53125 218.570312 252.261719 217.828125 252.082031 C 217.089844 251.902344 216.335938 251.808594 215.574219 251.808594 L 206.222656 251.808594 C 205.464844 251.808594 204.769531 251.605469 204.128906 251.195312 C 203.492188 250.785156 203.019531 250.234375 202.707031 249.542969 L 197.265625 237.574219 C 197.230469 237.515625 197.1875 237.464844 197.15625 237.40625 C 197.089844 237.257812 197.03125 237.109375 196.984375 236.957031 L 196.457031 235.800781 C 186.789062 243.003906 161.179688 266.101562 159.921875 309.316406 C 160.113281 309.828125 159.84375 324.191406 159.933594 326.28125 C 171.875 330.292969 184.144531 332.292969 196.738281 332.285156 C 200.359375 332.285156 203.941406 332.121094 207.480469 331.792969 C 206.050781 328.023438 204.332031 313.589844 204.417969 310.371094 Z M 202.210938 263.523438 C 201.96875 263.523438 201.734375 263.570312 201.507812 263.664062 C 201.285156 263.757812 201.085938 263.890625 200.910156 264.0625 C 200.738281 264.234375 200.605469 264.433594 200.511719 264.660156 C 200.417969 264.882812 200.371094 265.117188 200.371094 265.363281 C 200.371094 265.875 200.273438 266.367188 200.078125 266.839844 C 199.882812 267.316406 199.601562 267.734375 199.242188 268.09375 C 198.878906 268.457031 198.460938 268.738281 197.988281 268.933594 C 197.511719 269.128906 197.019531 269.226562 196.507812 269.226562 C 195.996094 269.226562 195.503906 269.128906 195.027344 268.933594 C 194.554688 268.738281 194.136719 268.457031 193.773438 268.09375 C 193.414062 267.734375 193.132812 267.316406 192.9375 266.839844 C 192.742188 266.367188 192.644531 265.875 192.644531 265.363281 C 192.644531 264.734375 192.707031 264.113281 192.828125 263.496094 C 192.953125 262.878906 193.132812 262.28125 193.375 261.703125 C 193.613281 261.121094 193.910156 260.570312 194.257812 260.050781 C 194.609375 259.527344 195.003906 259.046875 195.449219 258.601562 C 195.894531 258.15625 196.375 257.761719 196.898438 257.414062 C 197.421875 257.0625 197.972656 256.769531 198.550781 256.527344 C 199.132812 256.289062 199.730469 256.109375 200.347656 255.984375 C 200.960938 255.863281 201.585938 255.800781 202.210938 255.800781 C 202.839844 255.800781 203.460938 255.863281 204.078125 255.984375 C 204.695312 256.109375 205.292969 256.289062 205.875 256.527344 C 206.453125 256.769531 207.003906 257.0625 207.527344 257.414062 C 208.050781 257.761719 208.53125 258.15625 208.976562 258.601562 C 209.421875 259.046875 209.816406 259.527344 210.167969 260.050781 C 210.515625 260.570312 210.8125 261.121094 211.050781 261.703125 C 211.292969 262.28125 211.472656 262.878906 211.597656 263.496094 C 211.71875 264.113281 211.78125 264.734375 211.78125 265.363281 C 211.78125 265.875 211.683594 266.367188 211.488281 266.839844 C 211.292969 267.316406 211.011719 267.734375 210.652344 268.09375 C 210.289062 268.457031 209.871094 268.738281 209.398438 268.933594 C 208.921875 269.128906 208.429688 269.226562 207.917969 269.226562 C 207.40625 269.226562 206.914062 269.128906 206.4375 268.933594 C 205.964844 268.738281 205.546875 268.457031 205.183594 268.09375 C 204.824219 267.734375 204.542969 267.316406 204.347656 266.839844 C 204.152344 266.367188 204.054688 265.875 204.054688 265.363281 C 204.054688 265.117188 204.007812 264.882812 203.914062 264.660156 C 203.820312 264.433594 203.6875 264.234375 203.511719 264.0625 C 203.339844 263.890625 203.140625 263.757812 202.917969 263.664062 C 202.691406 263.570312 202.457031 263.523438 202.210938 263.523438 Z M 202.210938 263.523438 " fill-opacity="1" fill-rule="nonzero"/></g><path stroke-linecap="butt" transform="matrix(0.951825, -0.724684, 0.724684, 0.951825, 93.859246, 70.404019)" fill="none" stroke-linejoin="miter" d="M 18.592719 12.438599 C 18.591509 13.23795 18.340922 13.933617 17.838361 14.523624 C 17.333202 15.111653 16.735372 15.600398 16.039055 15.981327 C 15.415215 16.364086 14.773574 16.770227 14.11475 17.204325 C 13.453948 17.641022 12.846346 18.126431 12.289966 18.66315 C 11.736183 19.201847 11.28384 19.80136 10.937512 20.461069 C 10.588586 21.1188 10.417296 21.866635 10.41585 22.698637 C 10.414492 23.428108 10.589974 24.08702 10.935741 24.678592 C 11.283487 25.267565 11.709644 25.850575 12.213593 26.423045 C 12.717541 26.995516 13.272948 27.586644 13.879192 28.191855 C 14.486057 28.801642 15.041493 29.478976 15.545501 30.223858 C 16.047531 30.971337 16.473776 31.812964 16.82226 32.751336 C 17.168145 33.68773 17.344395 34.782246 17.341236 36.031549 C 17.342152 36.898182 17.160677 37.880395 16.796193 38.973612 C 16.431708 40.06683 15.935878 41.170853 15.312659 42.280485 C 14.687462 43.392715 13.950197 44.468868 13.098887 45.511544 C 12.247577 46.554219 11.345518 47.48028 10.391351 48.296902 C 9.434587 49.111545 8.438439 49.773085 7.395115 50.275588 C 6.354389 50.780068 5.346845 51.030744 4.375083 51.029592 C 3.298812 51.030951 2.345501 50.736051 1.510576 50.145513 C 0.67565 49.554975 0.262129 48.669684 0.260859 47.490881 C 0.262069 46.69153 0.450925 45.952966 0.834599 45.276547 C 1.215675 44.59815 1.684698 43.949777 2.240429 43.322277 C 2.794182 42.697374 3.411143 42.091868 4.088093 41.499204 C 4.765664 40.911116 5.379908 40.319958 5.936023 39.729685 C 6.492138 39.139413 6.960926 38.523692 7.344363 37.879924 C 7.725823 37.238755 7.914944 36.553745 7.916302 35.824274 C 7.915091 34.817882 7.560762 33.784772 6.848739 32.725565 C 6.136716 31.666357 5.347875 30.573288 4.479618 29.444378 C 3.611362 28.315468 2.821015 27.159692 2.109199 25.981627 C 1.396762 24.798986 1.041016 23.600639 1.04196 22.386586 C 1.042314 20.893014 1.440277 19.324603 2.237206 17.674178 C 3.038712 16.023133 4.061902 14.512143 5.31395 13.142565 C 6.5634 11.771009 7.967902 10.632416 9.530675 9.733338 C 11.092827 8.829684 12.639303 8.377842 14.165527 8.378432 C 15.381558 8.376778 16.421222 8.741529 17.289094 9.472062 C 18.158945 10.199998 18.591302 11.189916 18.592719 12.438599 Z M 18.592719 12.438599 " stroke="#f3eac6" stroke-width="1.999999" stroke-opacity="1" stroke-miterlimit="4"/><path stroke-linecap="butt" transform="matrix(1.088956, -0.495289, 0.495289, 1.088956, 119.059852, 52.008541)" fill="none" stroke-linejoin="miter" d="M 23.384804 39.730799 C 23.382905 40.910108 23.01187 42.065009 22.265753 43.192797 C 21.519637 44.320586 20.580601 45.328345 19.452968 46.214453 C 18.322364 47.099209 17.116675 47.809916 15.831577 48.348194 C 14.546479 48.886472 13.365485 49.15643 12.289946 49.155096 C 10.448829 49.157095 8.811309 48.695687 7.368736 47.774114 C 5.927785 46.856865 4.721458 45.684028 3.751376 44.259927 C 2.77697 42.837446 2.039596 41.2645 1.536551 39.547033 C 1.033505 37.829566 0.780418 36.154045 0.780262 34.52182 C 0.78067 32.785825 1.023509 30.92693 1.510399 28.949459 C 1.997289 26.971988 2.73384 25.147529 3.724646 23.481758 C 4.71248 21.814635 5.96481 20.425648 7.474338 19.315063 C 8.983866 18.204479 10.779714 17.647405 12.863503 17.648165 C 14.044163 17.647092 15.17235 17.848143 16.249416 18.248345 C 17.324862 18.644223 18.261906 19.210318 19.060282 19.939331 C 19.858657 20.668345 20.501344 21.534602 20.989964 22.542427 C 21.474259 23.551871 21.718828 24.678272 21.716642 25.929193 C 21.716798 27.561417 21.369726 29.089519 20.676778 30.510526 C 19.982477 31.934506 19.062034 33.169537 17.915179 34.208324 C 16.769944 35.251435 15.450725 36.09345 13.957521 36.734368 C 12.462966 37.378259 10.938752 37.73245 9.374881 37.803154 C 9.512735 38.809274 9.919538 39.539547 10.596643 39.991 C 11.273748 40.442454 12.082781 40.66694 13.019418 40.666079 C 13.715005 40.666783 14.392527 40.494262 15.049011 40.147163 C 15.70982 39.798444 16.353073 39.409456 16.977149 38.975874 C 17.602578 38.53932 18.220969 38.149786 18.82773 37.801595 C 19.43314 37.456376 20.05067 37.281678 20.674644 37.282095 C 21.370231 37.282799 21.996585 37.506702 22.551002 37.959748 C 23.106772 38.409821 23.382813 39.001702 23.384804 39.730799 Z M 14.946989 26.971792 C 14.947906 26.520228 14.82533 26.048367 14.582502 25.564858 C 14.338053 25.077025 13.956537 24.835344 13.436333 24.835492 C 12.672106 24.835853 12.029168 25.034865 11.510492 25.433882 C 10.988843 25.831546 10.554455 26.337055 10.20706 26.943112 C 9.861284 27.553494 9.591437 28.201996 9.400757 28.897268 C 9.210077 29.59254 9.097778 30.233783 9.062509 30.82397 C 9.548147 30.718422 10.130538 30.58155 10.805087 30.407676 C 11.483961 30.232183 12.124204 29.99966 12.732845 29.702544 C 13.340134 29.4084 13.861237 29.035597 14.296152 28.584136 C 14.731068 28.132674 14.946572 27.595766 14.946989 26.971792 Z M 14.946989 26.971792 " stroke="#f3eac6" stroke-width="1.999999" stroke-opacity="1" stroke-miterlimit="4"/><path stroke-linecap="butt" transform="matrix(1.179929, -0.197244, 0.197244, 1.179929, 154.739937, 37.05463)" fill="none" stroke-linejoin="miter" d="M 24.374065 34.104834 C 24.372601 36.014794 24.182189 37.906411 23.799072 39.782367 C 23.419713 41.655641 22.775267 43.332315 21.873251 44.807024 C 20.971235 46.281733 19.765524 47.473934 18.253972 48.376647 C 16.742959 49.27614 14.859619 49.729365 12.601806 49.729342 C 10.380497 49.7288 8.524432 49.286107 7.03039 48.400723 C 5.536348 47.515339 4.348425 46.343448 3.463401 44.884512 C 2.577838 43.428797 1.953259 41.778348 1.588586 39.939605 C 1.224451 38.097642 1.041236 36.223021 1.0427 34.313061 C 1.039954 32.230246 1.28574 30.165804 1.770936 28.114898 C 1.873736 27.559352 2.075413 26.788595 2.370064 25.798328 C 2.664716 24.808061 3.045784 23.835551 3.516491 22.881336 C 3.983977 21.926582 4.522258 21.102844 5.128652 20.406362 C 5.737728 19.71364 6.405149 19.365039 7.136279 19.368078 C 7.828224 19.367877 8.385875 19.557104 8.802253 19.937903 C 9.218092 20.321922 9.549071 20.797694 9.790893 21.371122 C 10.032715 21.94455 10.189167 22.553365 10.260788 23.194348 C 10.32865 23.838013 10.364335 24.416709 10.363008 24.939559 C 10.365304 25.737793 10.304266 26.518818 10.183113 27.283173 C 10.05874 28.04699 9.931146 28.810268 9.790131 29.574613 C 9.652741 30.614343 9.521253 31.65837 9.400503 32.69757 C 9.279215 33.739991 9.217513 34.782442 9.218617 35.825459 C 9.217828 36.345088 9.243313 36.92539 9.294534 37.569584 C 9.349514 38.211095 9.478048 38.828486 9.687654 39.416392 C 9.896722 40.007519 10.191189 40.503672 10.571592 40.901631 C 10.955216 41.300128 11.49139 41.499007 12.186555 41.499345 C 13.090001 41.501394 13.809442 41.257496 14.347559 40.771409 C 14.885676 40.285323 15.285356 39.676777 15.546061 38.948993 C 15.807305 38.217988 15.970873 37.437549 16.040525 36.604995 C 16.110178 35.77244 16.145442 35.00697 16.145241 34.315025 C 16.145983 32.785661 16.039351 31.284695 15.832322 29.809985 C 15.622611 28.331515 15.43331 26.829972 15.257978 25.30428 C 15.224244 25.129802 15.208795 24.885547 15.207873 24.574198 C 15.208662 24.054569 15.292657 23.532296 15.468983 23.012215 C 15.642088 22.491596 15.886026 22.022544 16.197577 21.604523 C 16.50859 21.189721 16.889889 20.849571 17.343616 20.59105 C 17.794662 20.32877 18.296102 20.200716 18.852235 20.200986 C 19.617186 20.199747 20.29397 20.468479 20.882586 21.007183 C 21.474423 21.546425 21.96795 22.238073 22.368532 23.089644 C 22.769114 23.941215 23.096102 24.896354 23.359699 25.953456 C 23.619536 27.01324 23.826238 28.054211 23.982488 29.080126 C 24.139276 30.10282 24.242948 31.066976 24.294044 31.969375 C 24.34836 32.872311 24.374854 33.585204 24.374065 34.104834 Z M 24.374065 34.104834 " stroke="#f3eac6" stroke-width="1.999999" stroke-opacity="1" stroke-miterlimit="4"/><path stroke-linecap="butt" transform="matrix(1.1899, 0.123599, -0.123599, 1.1899, 195.85376, 31.648398)" fill="none" stroke-linejoin="miter" d="M 25.726355 21.085663 C 25.727368 22.960059 25.321142 24.801252 24.504092 26.606329 C 23.687043 28.411407 22.60157 30.034266 21.247673 31.474904 C 19.893776 32.915543 18.348814 34.096986 16.612449 35.015987 C 14.876421 35.938236 13.091054 36.44869 11.250187 36.55127 C 11.213604 37.17881 11.187393 37.969414 11.171554 38.923083 C 11.152468 39.877089 11.091961 40.874792 10.990033 41.916191 C 10.884857 42.957928 10.737122 44.000802 10.546492 45.041567 C 10.355861 46.082332 10.079061 47.020431 9.712506 47.852953 C 9.349536 48.688386 8.878085 49.36438 8.305323 49.886755 C 7.732224 50.405882 7.030443 50.665901 6.196731 50.667147 C 5.224925 50.666324 4.453013 50.345999 3.880657 49.702924 C 3.308301 49.059848 2.873536 48.287582 2.579611 47.385786 C 2.282437 46.484328 2.082234 45.536686 1.979339 44.546108 C 1.873534 43.559115 1.805645 42.715911 1.769513 42.020419 C 1.700995 41.013139 1.657572 40.026232 1.641819 39.052865 C 1.622818 38.079835 1.615459 37.092464 1.615819 36.084595 C 1.614733 35.631676 1.616059 34.791131 1.615876 33.556802 C 1.61603 32.325721 1.624287 30.919808 1.640646 29.339063 C 1.657342 27.761565 1.682855 26.11093 1.71786 24.393651 C 1.752528 22.673125 1.806511 21.07534 1.873313 19.600971 C 1.943364 18.126266 2.022689 16.867264 2.10804 15.824303 C 2.196977 14.784253 2.307711 14.175274 2.447412 14.003187 C 2.483012 13.96666 2.58669 13.890234 2.761019 13.767075 C 2.932437 13.647501 3.123343 13.525903 3.333735 13.402281 C 3.541216 13.282244 3.733134 13.17039 3.905902 13.063807 C 4.079007 12.960472 4.199936 12.892102 4.271599 12.855113 C 5.868646 11.953866 7.622428 11.170935 9.530371 10.513153 C 11.441226 9.851786 13.334188 9.523843 15.208585 9.522831 C 16.804219 9.524512 18.25551 9.843207 19.556636 10.486088 C 20.857762 11.128969 21.970259 11.978565 22.887968 13.038799 C 23.808924 14.098696 24.511221 15.329034 24.998779 16.73597 C 25.48309 18.143244 25.728751 19.591722 25.726355 21.085663 Z M 16.717972 22.284021 C 16.717903 21.588066 16.553123 20.981443 16.223294 20.460904 C 15.893466 19.940364 15.34759 19.678631 14.582756 19.679288 C 13.922864 19.678894 13.263476 19.809761 12.604253 20.068641 C 11.945368 20.330769 11.336211 20.597581 10.780706 20.875233 C 10.884144 22.092271 10.980624 23.27392 11.066559 24.41727 C 11.152832 25.563869 11.163856 26.744546 11.093137 27.959977 C 11.648641 27.682325 12.25531 27.359963 12.916729 26.995804 C 13.5749 26.631982 14.182541 26.224166 14.739652 25.772356 C 15.293516 25.320884 15.762348 24.809304 16.145811 24.234369 C 16.526363 23.66302 16.718166 23.012792 16.717972 22.284021 Z M 16.717972 22.284021 " stroke="#f3eac6" stroke-width="1.999999" stroke-opacity="1" stroke-miterlimit="4"/><path stroke-linecap="butt" transform="matrix(1.118884, 0.423364, -0.423364, 1.118884, 235.816731, 37.212493)" fill="none" stroke-linejoin="miter" d="M 23.383982 39.730652 C 23.383655 40.910803 23.010248 42.064542 22.263763 43.191869 C 21.518433 44.322249 20.580125 45.330142 19.451894 46.214391 C 18.323662 47.098639 17.116193 47.81038 15.832538 48.348459 C 14.548884 48.886537 13.366093 49.156031 12.291428 49.157684 C 10.450878 49.155872 8.811146 48.697533 7.369921 47.77656 C 5.928696 46.855586 4.721387 45.685508 3.749894 44.262115 C 2.777244 42.835669 2.039585 41.264447 1.536916 39.548451 C 1.03309 37.8294 0.780103 36.155086 0.779852 34.521298 C 0.779683 32.786234 1.022594 30.927772 1.509738 28.948968 C 1.996882 26.970163 2.735195 25.147688 3.724676 23.481543 C 4.714156 21.815397 5.961656 20.425181 7.472541 19.315846 C 8.982269 18.203457 10.779897 17.648952 12.864269 17.649278 C 14.043264 17.646552 15.173561 17.847286 16.249795 18.246527 C 17.326029 18.645769 18.262112 19.20976 19.062252 19.940398 C 19.861236 20.667983 20.500507 21.536298 20.989226 22.541876 C 21.474891 23.54861 21.717477 24.678741 21.718883 25.92806 C 21.717978 27.558794 21.370903 29.086602 20.674602 30.51264 C 19.980199 31.934468 19.061289 33.168931 17.91556 34.209923 C 16.76983 35.250914 15.450767 36.09216 13.958371 36.733661 C 12.46292 37.376317 10.936434 37.733964 9.373548 37.80165 C 9.514115 38.809787 9.922522 39.538528 10.599925 39.990926 C 11.276173 40.44027 12.080934 40.666427 13.020317 40.667085 C 13.714722 40.666176 14.392949 40.493337 15.050789 40.146669 C 15.711683 39.798846 16.353344 39.409423 16.977673 38.974191 C 17.603157 38.542012 18.218818 38.148462 18.828125 37.802703 C 19.433221 37.455045 20.051442 37.280472 20.67668 37.281296 C 21.371085 37.280387 21.995084 37.508608 22.549421 37.958695 C 23.107967 38.41068 23.383733 39.001085 23.383982 39.730652 Z M 14.946431 26.971952 C 14.945853 26.518315 14.824849 26.050893 14.581108 25.56358 C 14.338524 25.079321 13.956778 24.836243 13.43587 24.834346 C 12.671141 24.833935 12.031213 25.034177 11.508821 25.43433 C 10.989482 25.833327 10.554913 26.336407 10.208165 26.942413 C 9.859519 27.552629 9.59201 28.201968 9.400685 28.895796 C 9.210515 29.592678 9.096612 30.232772 9.062442 30.825241 C 9.549012 30.717939 10.129513 30.582078 10.806584 30.406184 C 11.484812 30.233345 12.125401 29.997941 12.733717 29.704924 C 13.340877 29.408854 13.863352 29.036599 14.295775 28.583208 C 14.729355 28.132872 14.948661 27.596034 14.946431 26.971952 Z M 14.946431 26.971952 " stroke="#f3eac6" stroke-width="1.999999" stroke-opacity="1" stroke-miterlimit="4"/><path stroke-linecap="butt" transform="matrix(0.992988, 0.667167, -0.667167, 0.992988, 270.341999, 51.651112)" fill="none" stroke-linejoin="miter" d="M 13.696882 50.876098 C 11.233566 50.875001 9.313376 50.552263 7.942664 49.911483 C 6.570131 49.267992 5.546214 48.358802 4.869983 47.176673 C 4.191041 45.996365 3.785631 44.573269 3.644691 42.905607 C 3.505571 41.240655 3.437301 39.38255 3.43717 37.333111 C 3.437633 35.70026 3.488787 34.060886 3.593344 32.41317 C 3.69608 30.762744 3.853657 29.000728 4.061545 27.126233 C 3.57703 27.125259 3.193983 27.134789 2.915114 27.152999 C 2.638956 27.169389 2.41349 27.179257 2.239605 27.178071 C 1.126588 27.178454 0.164841 26.935585 -0.650167 26.448572 C -1.467885 25.963381 -1.874479 25.2177 -1.874481 24.21064 C -1.874016 23.584849 -1.640547 23.030669 -1.173184 22.54357 C -0.70129 22.05736 -0.10417 21.640432 0.625419 21.291856 C 1.354118 20.947811 2.142825 20.669661 2.993363 20.460117 C 3.845721 20.253283 4.652131 20.112725 5.416234 20.043864 C 5.41636 19.072123 5.486742 17.994171 5.626491 16.814539 C 5.76171 15.634017 6.015844 14.530951 6.378943 13.508095 C 6.744752 12.483417 7.237947 11.624917 7.863949 10.928952 C 8.48724 10.234808 9.289288 9.888688 10.261029 9.888813 C 10.814361 9.886821 11.311242 10.052574 11.74532 10.382473 C 12.179399 10.712371 12.533183 11.127687 12.813026 11.632021 C 13.088338 12.135466 13.297755 12.698919 13.435857 13.326023 C 13.576668 13.951306 13.645868 14.557829 13.645276 15.148301 C 13.643245 15.842021 13.593274 16.552214 13.489944 17.282523 C 13.386614 18.012832 13.193334 18.913723 12.915569 19.993327 C 13.505787 19.923281 13.905011 19.87928 14.113242 19.861323 C 14.321472 19.843367 14.51344 19.836337 14.685504 19.834812 C 15.275976 19.835403 15.893806 19.888423 16.537173 19.991161 C 17.177829 20.095719 17.767116 20.270196 18.307744 20.51277 C 18.843841 20.754455 19.28876 21.077069 19.634329 21.474302 C 19.981719 21.874246 20.153699 22.352705 20.155691 22.906037 C 20.155226 23.531829 19.902742 24.086983 19.40006 24.574209 C 18.897378 25.061436 18.263118 25.47578 17.49821 25.824483 C 16.736013 26.171365 15.918296 26.441469 15.050481 26.631152 C 14.184486 26.823545 13.36626 26.952372 12.602157 27.021233 C 12.395369 28.446532 12.248844 29.7566 12.159871 30.953256 C 12.072719 32.152623 11.977436 33.357453 11.874954 34.574988 C 11.806434 35.163893 11.745199 35.76364 11.692136 36.369697 C 11.640895 36.978465 11.614132 37.594389 11.613667 38.220181 C 11.614388 38.672087 11.630778 39.20001 11.666479 39.80937 C 11.70036 40.41602 11.823808 40.997895 12.030473 41.551396 C 12.238958 42.107608 12.568519 42.586405 13.020045 42.983257 C 13.470682 43.384641 14.095372 43.582536 14.895049 43.584186 C 15.382275 43.583339 15.884746 43.540777 16.405173 43.45468 C 16.9256 43.368584 17.447085 43.325048 17.967809 43.321363 C 18.870733 43.324452 19.520283 43.635462 19.920101 44.259813 C 20.319919 44.884164 20.518411 45.683121 20.520106 46.657572 C 20.520912 47.384789 20.302223 48.019517 19.869459 48.558112 C 19.434875 49.093998 18.888531 49.527949 18.225896 49.859078 C 17.567793 50.191095 16.831513 50.441887 16.014347 50.613275 C 15.199002 50.787374 14.42681 50.873471 13.696882 50.876098 Z M 13.696882 50.876098 " stroke="#f3eac6" stroke-width="1.999999" stroke-opacity="1" stroke-miterlimit="4"/></svg>